<svg xmlns="http://www.w3.org/2000/svg" viewBox="0 0 500 500">
  <g id="freepik--background-simple--inject-1">
    <path d="M438.07,82.85C478.84,141.91,480,223.52,448.37,288S355.79,399.79,288,423.42c-48.38,16.87-102.2,22.35-150.83,6.19S46.48,373.15,36.66,322.87c-3.71-19-2.49-39.89,8.28-56,17.2-25.67,51.9-31.34,82.62-34.68S193,223.3,210.28,197.7c13.3-19.67,12.08-45.32,17.29-68.49,8.88-39.38,38.83-73.35,76.79-87.1a116.49,116.49,0,0,1,20.45-5.33c41.34-6.87,83.13,9.57,109.8,41.88Z" style="fill:#ebebeb"></path>
    <circle cx="113.98" cy="86.64" r="45" style="fill:#ebebeb"></circle>
  </g>
</svg>
