<svg viewBox="0 0 1920 1080" xmlns="http://www.w3.org/2000/svg">
  <path fill="#EBEBEB" d="M46.1,-40.6C62.1,-30.1,79.1,-15.1,80.1,1C81.1,17.1,66.3,34.3,50.3,45.8C34.3,57.4,17.1,63.4,1.7,61.8C-13.8,60.1,-27.5,50.7,-44.2,39.1C-60.9,27.5,-80.4,13.8,-82.1,-1.7C-83.7,-17.1,-67.5,-34.2,-50.8,-44.7C-34.2,-55.2,-17.1,-59.1,-1,-58.1C15.1,-57.1,30.1,-51.1,46.1,-40.6Z" transform="translate(610 560) scale(7)" />
  <path fill="#EBEBEB" d="M42.9,24.6C30.7,46,-21.4,44.3,-35.3,22C-49.1,-0.3,-24.5,-43.1,1.5,-42.2C27.6,-41.3,55.2,3.2,42.9,24.6Z" transform="translate(1600 400) scale(5)" />
  <path fill="#EBEBEB" d="M29.3,18.4C15.7,40.4,-32.9,43.7,-43.6,23.3C-54.3,3,-27.2,-41.1,-2.9,-42.8C21.4,-44.4,42.8,-3.7,29.3,18.4Z" transform="translate(1460 900) scale(4.5)" />
</svg>
